<svg width="90" height="83" viewBox="0 0 90 83" fill="none" xmlns="http://www.w3.org/2000/svg">
<path d="M14.3139 48.2467C14.6652 48.1749 15.0359 48.1218 15.4268 48.0888C15.4419 48.0876 15.457 48.0863 15.4721 48.0851C15.4571 48.0876 15.4422 48.0901 15.4272 48.0925C15.0475 48.1551 14.6764 48.2063 14.3139 48.2467C-1.2059 49.9761 -0.970007 31.8485 8.98397 31.3959C4.94129 23.6318 8.0571 16.561 14.5452 17.4882C15.2443 17.6327 22.1057 19.8875 20.269 21.9615C20.2209 22.0158 20.1668 22.07 20.1065 22.1241L20.269 21.9615C22.1057 19.8875 15.2443 17.6327 14.5452 17.4882C8.0571 16.561 4.94129 23.6318 8.98397 31.3959C-0.970007 31.8485 -1.2059 49.9761 14.3139 48.2467Z" fill="#051885"/>
<path d="M39.1074 81C35.4024 80.4976 34.1122 79.0934 32.6193 75.4369C9.66168 80.6466 21.0333 62.92 15.4721 65.2379C9.91084 67.5559 3.88615 49.0123 15.4721 48.0851M15.4721 48.0851C17.3586 53.5175 18.5614 55.7721 21.4968 55.5025M15.4721 48.0851C-1.21163 50.8666 -1.21165 31.8595 8.98397 31.3959C4.94129 23.6318 8.0571 16.561 14.5452 17.4882M21.4968 55.5025C22.9085 52.2275 24.3977 51.4614 28.4483 52.2574M21.4968 55.5025C20.1065 57.8205 20.0488 59.899 22.4236 61.5292M15.4721 48.5487C15.0087 43.9128 15.033 42.5195 19.1796 41.1313M14.5452 17.4882C15.2627 17.6365 22.4695 20.0071 20.1065 22.1241M14.5452 17.4882C13.6183 7.7528 21.4968 1.72612 29.8386 5.43484M20.1065 22.1241C17.7434 24.241 17.7893 25.3692 19.1796 26.76M20.1065 22.1241L23.814 18.4154M29.8386 5.43484C28.0244 10.2108 28.0822 12.4968 30.7655 15.6338M29.8386 5.43484C36.7902 -1.51901 46.0589 2.65331 45.1321 12.8523V32.3231M45.1321 32.3231C40.568 23.8493 37.3821 21.951 30.3021 24.9056C26.2387 26.9719 24.5812 28.5215 24.7408 33.2502C24.8726 42.6931 28.7334 46.4895 40.4977 51.3302M45.1321 32.3231C48.9809 25.6781 51.1089 23.8467 54.8643 23.5149C62.659 23.1548 65.072 25.6853 65.5233 35.5682C64.464 41.0978 57.592 47.1479 45.1321 54.1118C40.1709 56.5575 38.4826 58.3821 36.3268 61.9928C34.3587 64.8394 34.5332 66.5851 36.3268 69.8738C44.1079 80.8544 48.9938 83.3011 59.4986 74.9733C72.0876 78.6437 74.6995 76.6532 75.2555 65.2379C79.5057 65.0526 81.739 64.7894 82.6705 61.0656C83.5121 56.3271 83.192 53.5257 81.7436 51.642M50.6933 74.0462C56.679 67.6452 56.2797 63.9859 50.2299 57.3569M67.8405 56.4297C73.1406 52.7862 74.8645 50.1295 74.518 47.302M67.8405 56.4297C66.3119 52.4608 64.7821 52.1462 61.8158 52.2574M67.8405 56.4297C68.698 58.6022 68.7957 59.8203 67.8405 61.9928M71.548 41.1313C73.1534 43.4864 74.2887 45.4316 74.518 47.302M74.518 47.302C74.6881 47.789 74.8293 47.9923 75.2555 48.0851C78.2892 49.0232 80.4597 49.972 81.7436 51.642M81.7436 51.642C90.0855 45.3036 90.0855 35.1046 81.7436 31.3959C85.6492 23.1585 80.8167 15.6338 77.1092 17.4882L75.8734 18.4154M71.548 21.6605C72.7117 24.172 72.8539 25.52 71.0846 27.6872M71.548 21.6605C69.6424 18.6222 68.5306 17.82 66.4502 18.4154M71.548 21.6605L75.8734 18.4154M75.8734 18.4154C77.5727 7.28921 66.4502 1.26254 60.8889 5.43485M60.8889 5.43485C63.7095 9.55232 63.9292 11.7178 60.4255 15.1702M60.8889 5.43485C58.1083 1.72613 52.1722 0.971302 48.3761 5.43485" stroke="black" stroke-width="2.81"/>
</svg>
