<svg width="48" height="46" viewBox="0 0 48 46" fill="none" xmlns="http://www.w3.org/2000/svg">
<path d="M8.30014 26.5869C8.47985 26.5487 8.66954 26.5204 8.86955 26.5029C8.87725 26.5022 8.88497 26.5016 8.8927 26.5009C8.88504 26.5023 8.87738 26.5036 8.86973 26.5049C8.67544 26.5381 8.48559 26.5654 8.30014 26.5869C0.35977 27.5063 0.480461 17.8688 5.5732 17.6282C3.50484 13.5004 5.09898 9.74129 8.41848 10.2342C8.77617 10.311 12.2866 11.5098 11.3469 12.6124C11.3223 12.6413 11.2946 12.6701 11.2638 12.6989L11.3469 12.6124C12.2866 11.5098 8.77617 10.311 8.41848 10.2342C5.09898 9.74129 3.50484 13.5004 5.5732 17.6282C0.480461 17.8688 0.35977 27.5063 8.30014 26.5869Z" fill="white"/>
<path d="M20.9852 44C19.0896 43.7329 18.4295 42.9864 17.6657 41.0424C5.91993 43.8121 11.738 34.3878 8.8927 35.6202C6.04741 36.8525 2.96501 26.9939 8.8927 26.5009M8.8927 26.5009C9.85789 29.389 10.4733 30.5877 11.9751 30.4444M8.8927 26.5009C0.35684 27.9797 0.356833 17.8747 5.5732 17.6282C3.50484 13.5004 5.09898 9.74129 8.41848 10.2342M11.9751 30.4444C12.6974 28.7032 13.4593 28.2959 15.5317 28.7191M11.9751 30.4444C11.2638 31.6767 11.2343 32.7817 12.4493 33.6484M8.8927 26.7474C8.65559 24.2828 8.66807 23.542 10.7896 22.804M8.41848 10.2342C8.78554 10.3131 12.4728 11.5734 11.2638 12.6989M8.41848 10.2342C7.94427 5.05845 11.9751 1.8544 16.243 3.82612M11.2638 12.6989C10.0548 13.8243 10.0782 14.4241 10.7896 15.1635M11.2638 12.6989L13.1606 10.7272M16.243 3.82612C15.3148 6.36522 15.3444 7.58058 16.7172 9.24836M16.243 3.82612C19.7996 0.129136 24.5418 2.34733 24.0676 7.76957V18.1211M24.0676 18.1211C21.7325 13.6161 20.1025 12.6068 16.4801 14.1777C14.4012 15.2762 13.5532 16.1 13.6348 18.6141C13.7023 23.6343 15.6776 25.6527 21.6965 28.2262M24.0676 18.1211C26.0368 14.5883 27.1255 13.6147 29.0468 13.4383C33.0348 13.2468 34.2694 14.5922 34.5003 19.8464C33.9583 22.7862 30.4424 26.0027 24.0676 29.705C21.5293 31.0052 20.6655 31.9753 19.5625 33.8949C18.5556 35.4083 18.6449 36.3364 19.5625 38.0848C23.5436 43.9226 26.0433 45.2233 31.4179 40.7959C37.8588 42.7473 39.1951 41.6891 39.4795 35.6202C41.6541 35.5217 42.7967 35.3817 43.2733 33.402C43.7039 30.8828 43.5401 29.3934 42.7991 28.3919M26.9129 40.303C29.9753 36.9 29.771 34.9545 26.6757 31.4303M35.6858 30.9373C38.3975 29.0002 39.2795 27.5878 39.1022 26.0846M35.6858 30.9373C34.9038 28.8273 34.1211 28.66 32.6034 28.7191M35.6858 30.9373C36.1246 32.0923 36.1745 32.7399 35.6858 33.8949M37.5827 22.804C38.4041 24.0561 38.9849 25.0902 39.1022 26.0846M39.1022 26.0846C39.1893 26.3435 39.2615 26.4516 39.4795 26.5009C41.0317 26.9997 42.1422 27.5041 42.7991 28.3919M42.7991 28.3919C47.067 25.0222 47.067 19.5999 42.7991 17.6282C44.7972 13.2488 42.3248 9.24836 40.428 10.2342L39.7957 10.7272M37.5827 12.4524C38.1781 13.7876 38.2508 14.5043 37.3456 15.6565M37.5827 12.4524C36.6078 10.8371 36.0389 10.4106 34.9745 10.7272M37.5827 12.4524L39.7957 10.7272M39.7957 10.7272C40.6651 4.81198 34.9745 1.60793 32.1292 3.82612M32.1292 3.82612C33.5723 6.01516 33.6847 7.16642 31.8921 9.0019M32.1292 3.82612C30.7066 1.8544 27.6695 1.4531 25.7273 3.82612" stroke="white" stroke-width="2.34067"/>
</svg>
