<svg width="44" height="41" viewBox="0 0 44 41" fill="none" xmlns="http://www.w3.org/2000/svg">
<path d="M7.72741 23.5993C7.89079 23.5658 8.06322 23.5409 8.24504 23.5256C8.25204 23.525 8.25906 23.5244 8.26609 23.5238C8.25912 23.525 8.25216 23.5261 8.24521 23.5273C8.06858 23.5565 7.89601 23.5804 7.72741 23.5993C0.508895 24.407 0.6186 15.9406 5.24836 15.7292C3.36804 12.103 4.81726 8.80064 7.83499 9.23368C8.16016 9.30117 11.3515 10.3543 10.4972 11.3229C10.4748 11.3483 10.4497 11.3736 10.4216 11.3989L10.4972 11.3229C11.3515 10.3543 8.16016 9.30117 7.83499 9.23368C4.81726 8.80064 3.36804 12.103 5.24836 15.7292C0.6186 15.9406 0.508895 24.407 7.72741 23.5993Z" fill="black"/>
<path d="M19.2593 38.8966C17.536 38.6619 16.9359 38.0061 16.2415 36.2983C5.56357 38.7315 10.8527 30.4524 8.26609 31.535C5.67946 32.6175 2.87728 23.9569 8.26609 23.5238M8.26609 23.5238C9.14354 26.061 9.70296 27.114 11.0683 26.9881M8.26609 23.5238C0.506218 24.8229 0.506211 15.9457 5.24836 15.7292C3.36804 12.103 4.81726 8.80064 7.83499 9.23368M11.0683 26.9881C11.7249 25.4585 12.4175 25.1007 14.3015 25.4725M11.0683 26.9881C10.4216 28.0707 10.3948 29.0414 11.4994 29.8028M8.26609 23.7403C8.05054 21.5752 8.06188 20.9244 9.9905 20.2761M7.83499 9.23368C8.16868 9.30293 11.5207 10.4101 10.4216 11.3989M7.83499 9.23368C7.40388 4.68681 11.0683 1.87209 14.9482 3.60423M10.4216 11.3989C9.32252 12.3876 9.34385 12.9145 9.9905 13.564M10.4216 11.3989L12.146 9.66671M14.9482 3.60423C14.1044 5.8348 14.1313 6.90248 15.3793 8.36761M14.9482 3.60423C18.1815 0.356466 22.4925 2.30513 22.0614 7.0685V16.1622M22.0614 16.1622C19.9386 12.2046 18.4568 11.318 15.1638 12.698C13.2738 13.663 12.5029 14.3867 12.5771 16.5953C12.6384 21.0055 14.4341 22.7786 19.9059 25.0394M22.0614 16.1622C23.8516 13.0587 24.8413 12.2034 26.588 12.0484C30.2135 11.8802 31.3358 13.0621 31.5457 17.6779C31.053 20.2604 27.8567 23.0861 22.0614 26.3385C19.7539 27.4808 18.9687 28.333 17.9659 30.0193C17.0505 31.3488 17.1317 32.1641 17.9659 33.7001C21.5851 38.8286 23.8576 39.9713 28.7435 36.0818C34.5989 37.7961 35.8137 36.8664 36.0723 31.535C38.0492 31.4484 39.0879 31.3255 39.5212 29.5863C39.9126 27.3732 39.7637 26.0648 39.09 25.185M24.6481 35.6488C27.4321 32.6593 27.2464 30.9502 24.4325 27.8542M32.6235 27.4211C35.0887 25.7194 35.8905 24.4787 35.7293 23.1581M32.6235 27.4211C31.9125 25.5675 31.201 25.4205 29.8213 25.4725M32.6235 27.4211C33.0223 28.4358 33.0678 29.0047 32.6235 30.0193M34.3479 20.2761C35.0946 21.376 35.6227 22.2845 35.7293 23.1581M35.7293 23.1581C35.8084 23.3855 35.8741 23.4805 36.0723 23.5238C37.4833 23.9619 38.4929 24.4051 39.09 25.185M39.09 25.185C42.97 22.2247 42.97 17.4613 39.09 15.7292C40.9066 11.882 38.6589 8.36761 36.9345 9.23368L36.3597 9.66671M34.3479 11.1823C34.8892 12.3553 34.9553 12.9849 34.1324 13.9971M34.3479 11.1823C33.4616 9.7633 32.9444 9.38864 31.9768 9.66671M34.3479 11.1823L36.3597 9.66671M36.3597 9.66671C37.1501 4.4703 31.9768 1.65557 29.3902 3.60423M29.3902 3.60423C30.7021 5.52727 30.8043 6.53864 29.1746 8.15109M29.3902 3.60423C28.0969 1.87209 25.3359 1.51955 23.5703 3.60423" stroke="black" stroke-width="2.34067"/>
</svg>
