<svg width="213" height="48" viewBox="0 0 213 48" fill="none" xmlns="http://www.w3.org/2000/svg">
<path d="M8.01606 27.8431C8.2162 27.8022 8.42744 27.7719 8.65018 27.7531C8.65875 27.7524 8.66735 27.7517 8.67596 27.751C8.66743 27.7524 8.6589 27.7538 8.65038 27.7552C8.43401 27.7909 8.22259 27.82 8.01606 27.8431C-0.826619 28.8282 -0.692214 18.5023 4.97924 18.2445C2.67585 13.8219 4.45114 9.79424 8.14786 10.3224C8.54619 10.4047 12.4556 11.6891 11.4091 12.8705C11.3817 12.9014 11.3509 12.9323 11.3165 12.9631L11.4091 12.8705C12.4556 11.6891 8.54619 10.4047 8.14786 10.3224C4.45114 9.79424 2.67585 13.8219 4.97924 18.2445C-0.692214 18.5023 -0.826619 28.8282 8.01606 27.8431Z" fill="#051885"/>
<path d="M22.1426 46.5C20.0316 46.2139 19.2965 45.414 18.4459 43.3312C5.36538 46.2987 11.8446 36.2013 8.67596 37.5216C5.50734 38.842 2.07467 28.2791 8.67596 27.751M8.67596 27.751C9.75083 30.8454 10.4361 32.1297 12.1086 31.9761M8.67596 27.751C-0.829882 29.3354 -0.829891 18.5086 4.97924 18.2445C2.67585 13.8219 4.45114 9.79424 8.14786 10.3224M12.1086 31.9761C12.913 30.1106 13.7615 29.6742 16.0694 30.1276M12.1086 31.9761C11.3165 33.2965 11.2836 34.4804 12.6367 35.409M8.67596 28.0151C8.41191 25.3744 8.4258 24.5807 10.7884 23.79M8.14786 10.3224C8.55663 10.4068 12.6629 11.7572 11.3165 12.9631M8.14786 10.3224C7.61975 4.77691 12.1086 1.34399 16.8616 3.45656M11.3165 12.9631C9.97008 14.1689 9.99622 14.8116 10.7884 15.6038M11.3165 12.9631L13.4289 10.8505M16.8616 3.45656C15.8279 6.17703 15.8608 7.47919 17.3897 9.2661M16.8616 3.45656C20.8223 -0.504497 26.1034 1.87214 25.5752 7.68168V18.7726M25.5752 18.7726C22.9748 13.9458 21.1596 12.8645 17.1256 14.5475C14.8104 15.7245 13.866 16.6072 13.957 19.3008C14.0321 24.6796 16.2318 26.8421 22.9347 29.5995M25.5752 18.7726C27.7682 14.9875 28.9807 13.9443 31.1203 13.7553C35.5615 13.5502 36.9364 14.9916 37.1935 20.6211C36.5899 23.7709 32.6745 27.2171 25.5752 31.1839C22.7486 32.577 21.7866 33.6164 20.5583 35.6731C19.4369 37.2946 19.5364 38.289 20.5583 40.1623C24.9917 46.4171 27.7755 47.8107 33.7608 43.0671C40.9336 45.1578 42.4218 44.024 42.7386 37.5216C45.1602 37.4161 46.4327 37.2661 46.9634 35.145C47.4429 32.4458 47.2605 30.8501 46.4353 29.7771M28.7439 42.539C32.1543 38.8929 31.9268 36.8084 28.4798 33.0324M38.5138 32.5043C41.5336 30.4288 42.5158 28.9156 42.3184 27.305M38.5138 32.5043C37.6428 30.2435 36.7712 30.0643 35.0811 30.1276M38.5138 32.5043C39.0023 33.7418 39.058 34.4356 38.5138 35.6731M40.6262 23.79C41.5409 25.1315 42.1878 26.2395 42.3184 27.305M42.3184 27.305C42.4153 27.5823 42.4958 27.6982 42.7386 27.751C44.4671 28.2854 45.7038 28.8259 46.4353 29.7771M46.4353 29.7771C51.1882 26.1666 51.1882 20.3571 46.4353 18.2445C48.6606 13.5523 45.9072 9.2661 43.7948 10.3224L43.0907 10.8505M40.6262 12.699C41.2892 14.1296 41.3703 14.8974 40.3621 16.1319M40.6262 12.699C39.5405 10.9683 38.9069 10.5114 37.7216 10.8505M40.6262 12.699L43.0907 10.8505M43.0907 10.8505C44.0588 4.51284 37.7216 1.07993 34.553 3.45656M34.553 3.45656C36.1601 5.80195 36.2852 7.03545 34.2889 9.00203M34.553 3.45656C32.9687 1.344 29.5865 0.914033 27.4236 3.45656" stroke="#2544F3" stroke-width="2"/>
<path d="M68.0352 14.9375H70.8242L75.4883 27.7812L80.1406 14.9375H82.9414L76.6016 32H74.3633L68.0352 14.9375ZM66.6289 14.9375H69.3594L69.8516 26.7383V32H66.6289V14.9375ZM81.6055 14.9375H84.3477V32H81.125V26.7383L81.6055 14.9375ZM90.6758 19.3203V32H87.5703V19.3203H90.6758ZM87.3594 16.0039C87.3594 15.543 87.5156 15.1602 87.8281 14.8555C88.1484 14.5508 88.5781 14.3984 89.1172 14.3984C89.6562 14.3984 90.082 14.5508 90.3945 14.8555C90.7148 15.1602 90.875 15.543 90.875 16.0039C90.875 16.457 90.7148 16.8359 90.3945 17.1406C90.082 17.4453 89.6562 17.5977 89.1172 17.5977C88.5781 17.5977 88.1484 17.4453 87.8281 17.1406C87.5156 16.8359 87.3594 16.457 87.3594 16.0039ZM96.6641 22.0273V32H93.5703V19.3203H96.4766L96.6641 22.0273ZM96.1719 25.2031H95.2578C95.2656 24.2812 95.3906 23.4453 95.6328 22.6953C95.875 21.9453 96.2148 21.3008 96.6523 20.7617C97.0977 20.2227 97.625 19.8086 98.2344 19.5195C98.8438 19.2305 99.5234 19.0859 100.273 19.0859C100.883 19.0859 101.434 19.1719 101.926 19.3438C102.418 19.5156 102.84 19.7891 103.191 20.1641C103.551 20.5391 103.824 21.0312 104.012 21.6406C104.207 22.2422 104.305 22.9844 104.305 23.8672V32H101.188V23.8438C101.188 23.2656 101.102 22.8086 100.93 22.4727C100.766 22.1367 100.523 21.8984 100.203 21.7578C99.8906 21.6172 99.5039 21.5469 99.043 21.5469C98.5664 21.5469 98.1484 21.6445 97.7891 21.8398C97.4375 22.0273 97.1406 22.2891 96.8984 22.625C96.6641 22.9609 96.4844 23.3477 96.3594 23.7852C96.2344 24.2227 96.1719 24.6953 96.1719 25.2031ZM114.641 29.3047V14H117.758V32H114.945L114.641 29.3047ZM106.496 25.8125V25.5664C106.496 24.5977 106.605 23.7188 106.824 22.9297C107.051 22.1328 107.379 21.4492 107.809 20.8789C108.238 20.3086 108.758 19.8672 109.367 19.5547C109.984 19.2422 110.684 19.0859 111.465 19.0859C112.223 19.0859 112.883 19.2383 113.445 19.543C114.016 19.8477 114.5 20.2812 114.898 20.8438C115.305 21.4062 115.629 22.0742 115.871 22.8477C116.113 23.6133 116.289 24.457 116.398 25.3789V26.0469C116.289 26.9453 116.113 27.7695 115.871 28.5195C115.629 29.2695 115.305 29.9258 114.898 30.4883C114.5 31.043 114.016 31.4727 113.445 31.7773C112.875 32.082 112.207 32.2344 111.441 32.2344C110.668 32.2344 109.973 32.0742 109.355 31.7539C108.746 31.4336 108.227 30.9844 107.797 30.4062C107.375 29.8281 107.051 29.1484 106.824 28.3672C106.605 27.5859 106.496 26.7344 106.496 25.8125ZM109.602 25.5664V25.8125C109.602 26.3594 109.648 26.8711 109.742 27.3477C109.836 27.8242 109.988 28.2461 110.199 28.6133C110.41 28.9727 110.68 29.2539 111.008 29.457C111.344 29.6602 111.75 29.7617 112.227 29.7617C112.836 29.7617 113.336 29.6289 113.727 29.3633C114.125 29.0898 114.434 28.7188 114.652 28.25C114.871 27.7734 115.012 27.2383 115.074 26.6445V24.8047C115.043 24.3359 114.961 23.9023 114.828 23.5039C114.703 23.1055 114.523 22.7617 114.289 22.4727C114.062 22.1836 113.781 21.957 113.445 21.793C113.109 21.6289 112.711 21.5469 112.25 21.5469C111.773 21.5469 111.367 21.6523 111.031 21.8633C110.695 22.0664 110.422 22.3516 110.211 22.7188C110 23.0859 109.844 23.5117 109.742 23.9961C109.648 24.4805 109.602 25.0039 109.602 25.5664Z" fill="#2544F3"/>
<path d="M128.117 14.9375V32H124.906V14.9375H128.117ZM133.414 14.9375V17.4805H119.668V14.9375H133.414ZM137.598 21.9102V32H134.504V19.3203H137.434L137.598 21.9102ZM141.453 19.2383L141.406 22.1211C141.234 22.0898 141.039 22.0664 140.82 22.0508C140.609 22.0352 140.41 22.0273 140.223 22.0273C139.746 22.0273 139.328 22.0938 138.969 22.2266C138.609 22.3516 138.309 22.5352 138.066 22.7773C137.832 23.0195 137.652 23.3164 137.527 23.668C137.402 24.0117 137.332 24.4023 137.316 24.8398L136.648 24.7578C136.648 23.9531 136.73 23.207 136.895 22.5195C137.059 21.832 137.297 21.2305 137.609 20.7148C137.922 20.1992 138.312 19.8008 138.781 19.5195C139.258 19.2305 139.805 19.0859 140.422 19.0859C140.594 19.0859 140.777 19.1016 140.973 19.1328C141.176 19.1562 141.336 19.1914 141.453 19.2383ZM149.738 29.3047V23.457C149.738 23.0273 149.664 22.6562 149.516 22.3438C149.367 22.0312 149.141 21.7891 148.836 21.6172C148.531 21.4453 148.145 21.3594 147.676 21.3594C147.262 21.3594 146.898 21.4297 146.586 21.5703C146.281 21.7109 146.047 21.9102 145.883 22.168C145.719 22.418 145.637 22.707 145.637 23.0352H142.531C142.531 22.5117 142.656 22.0156 142.906 21.5469C143.156 21.0703 143.512 20.6484 143.973 20.2812C144.441 19.9062 145 19.6133 145.648 19.4023C146.305 19.1914 147.039 19.0859 147.852 19.0859C148.812 19.0859 149.668 19.25 150.418 19.5781C151.176 19.8984 151.77 20.3828 152.199 21.0312C152.637 21.6797 152.855 22.4961 152.855 23.4805V29.0117C152.855 29.6445 152.895 30.1875 152.973 30.6406C153.059 31.0859 153.184 31.4727 153.348 31.8008V32H150.195C150.047 31.6797 149.934 31.2734 149.855 30.7812C149.777 30.2812 149.738 29.7891 149.738 29.3047ZM150.172 24.2773L150.195 26.1172H148.238C147.754 26.1172 147.328 26.168 146.961 26.2695C146.594 26.3633 146.293 26.5039 146.059 26.6914C145.824 26.8711 145.648 27.0898 145.531 27.3477C145.414 27.5977 145.355 27.8828 145.355 28.2031C145.355 28.5156 145.426 28.7969 145.566 29.0469C145.715 29.2969 145.926 29.4961 146.199 29.6445C146.48 29.7852 146.809 29.8555 147.184 29.8555C147.73 29.8555 148.207 29.7461 148.613 29.5273C149.02 29.3008 149.336 29.0273 149.562 28.707C149.789 28.3867 149.91 28.082 149.926 27.793L150.816 29.1289C150.707 29.4492 150.543 29.7891 150.324 30.1484C150.105 30.5078 149.824 30.8438 149.48 31.1562C149.137 31.4688 148.723 31.7266 148.238 31.9297C147.754 32.1328 147.191 32.2344 146.551 32.2344C145.73 32.2344 144.996 32.0703 144.348 31.7422C143.699 31.4141 143.188 30.9648 142.812 30.3945C142.438 29.8242 142.25 29.1758 142.25 28.4492C142.25 27.7773 142.375 27.1836 142.625 26.668C142.875 26.1523 143.246 25.7188 143.738 25.3672C144.23 25.0078 144.84 24.7383 145.566 24.5586C146.301 24.3711 147.141 24.2773 148.086 24.2773H150.172ZM160.848 29.7969C161.285 29.7969 161.676 29.7109 162.02 29.5391C162.363 29.3672 162.637 29.125 162.84 28.8125C163.051 28.5 163.164 28.1367 163.18 27.7227H166.098C166.082 28.582 165.84 29.3516 165.371 30.0312C164.902 30.7109 164.277 31.25 163.496 31.6484C162.723 32.0391 161.855 32.2344 160.895 32.2344C159.918 32.2344 159.066 32.0703 158.34 31.7422C157.613 31.4141 157.008 30.957 156.523 30.3711C156.047 29.7852 155.688 29.1055 155.445 28.332C155.211 27.5586 155.094 26.7305 155.094 25.8477V25.4727C155.094 24.5898 155.211 23.7617 155.445 22.9883C155.688 22.2148 156.047 21.5352 156.523 20.9492C157.008 20.3633 157.613 19.9062 158.34 19.5781C159.066 19.25 159.914 19.0859 160.883 19.0859C161.906 19.0859 162.805 19.2852 163.578 19.6836C164.359 20.082 164.969 20.6445 165.406 21.3711C165.852 22.0977 166.082 22.9531 166.098 23.9375H163.18C163.164 23.4844 163.062 23.0781 162.875 22.7188C162.688 22.3594 162.422 22.0703 162.078 21.8516C161.734 21.6328 161.316 21.5234 160.824 21.5234C160.301 21.5234 159.863 21.6328 159.512 21.8516C159.168 22.0703 158.898 22.3711 158.703 22.7539C158.516 23.1289 158.383 23.5508 158.305 24.0195C158.234 24.4805 158.199 24.9648 158.199 25.4727V25.8477C158.199 26.3633 158.234 26.8555 158.305 27.3242C158.383 27.793 158.516 28.2148 158.703 28.5898C158.898 28.957 159.168 29.25 159.512 29.4688C159.863 29.6875 160.309 29.7969 160.848 29.7969ZM171.254 13.9883V32H168.16V13.9883H171.254ZM179.199 19.3203L173.68 25.5195L170.691 28.5547L169.707 26.1523L172.016 23.2461L175.461 19.3203H179.199ZM176.035 32L172.109 26.0938L174.172 24.0898L179.621 32H176.035ZM184.121 19.3203V32H181.016V19.3203H184.121ZM180.805 16.0039C180.805 15.543 180.961 15.1602 181.273 14.8555C181.594 14.5508 182.023 14.3984 182.562 14.3984C183.102 14.3984 183.527 14.5508 183.84 14.8555C184.16 15.1602 184.32 15.543 184.32 16.0039C184.32 16.457 184.16 16.8359 183.84 17.1406C183.527 17.4453 183.102 17.5977 182.562 17.5977C182.023 17.5977 181.594 17.4453 181.273 17.1406C180.961 16.8359 180.805 16.457 180.805 16.0039ZM190.109 22.0273V32H187.016V19.3203H189.922L190.109 22.0273ZM189.617 25.2031H188.703C188.711 24.2812 188.836 23.4453 189.078 22.6953C189.32 21.9453 189.66 21.3008 190.098 20.7617C190.543 20.2227 191.07 19.8086 191.68 19.5195C192.289 19.2305 192.969 19.0859 193.719 19.0859C194.328 19.0859 194.879 19.1719 195.371 19.3438C195.863 19.5156 196.285 19.7891 196.637 20.1641C196.996 20.5391 197.27 21.0312 197.457 21.6406C197.652 22.2422 197.75 22.9844 197.75 23.8672V32H194.633V23.8438C194.633 23.2656 194.547 22.8086 194.375 22.4727C194.211 22.1367 193.969 21.8984 193.648 21.7578C193.336 21.6172 192.949 21.5469 192.488 21.5469C192.012 21.5469 191.594 21.6445 191.234 21.8398C190.883 22.0273 190.586 22.2891 190.344 22.625C190.109 22.9609 189.93 23.3477 189.805 23.7852C189.68 24.2227 189.617 24.6953 189.617 25.2031ZM208.543 19.3203H211.355V31.6133C211.355 32.7617 211.105 33.7344 210.605 34.5312C210.113 35.3359 209.422 35.9453 208.531 36.3594C207.641 36.7812 206.605 36.9922 205.426 36.9922C204.918 36.9922 204.367 36.9219 203.773 36.7812C203.188 36.6406 202.621 36.418 202.074 36.1133C201.535 35.8164 201.086 35.4297 200.727 34.9531L202.121 33.125C202.543 33.6172 203.02 33.9883 203.551 34.2383C204.082 34.4961 204.656 34.625 205.273 34.625C205.898 34.625 206.43 34.5078 206.867 34.2734C207.312 34.0469 207.652 33.7109 207.887 33.2656C208.129 32.8281 208.25 32.2891 208.25 31.6484V22.2148L208.543 19.3203ZM199.977 25.8125V25.5664C199.977 24.5977 200.094 23.7188 200.328 22.9297C200.562 22.1328 200.898 21.4492 201.336 20.8789C201.781 20.3086 202.316 19.8672 202.941 19.5547C203.574 19.2422 204.285 19.0859 205.074 19.0859C205.91 19.0859 206.613 19.2383 207.184 19.543C207.762 19.8477 208.238 20.2812 208.613 20.8438C208.996 21.4062 209.293 22.0742 209.504 22.8477C209.723 23.6133 209.891 24.457 210.008 25.3789V26.0469C209.898 26.9453 209.723 27.7695 209.48 28.5195C209.246 29.2695 208.934 29.9258 208.543 30.4883C208.152 31.043 207.668 31.4727 207.09 31.7773C206.512 32.082 205.832 32.2344 205.051 32.2344C204.27 32.2344 203.566 32.0742 202.941 31.7539C202.316 31.4336 201.781 30.9844 201.336 30.4062C200.898 29.8281 200.562 29.1484 200.328 28.3672C200.094 27.5859 199.977 26.7344 199.977 25.8125ZM203.07 25.5664V25.8125C203.07 26.3594 203.125 26.8711 203.234 27.3477C203.344 27.8242 203.512 28.2461 203.738 28.6133C203.965 28.9727 204.25 29.2539 204.594 29.457C204.938 29.6602 205.348 29.7617 205.824 29.7617C206.465 29.7617 206.988 29.6289 207.395 29.3633C207.809 29.0898 208.121 28.7188 208.332 28.25C208.551 27.7734 208.691 27.2383 208.754 26.6445V24.8047C208.715 24.3359 208.629 23.9023 208.496 23.5039C208.371 23.1055 208.195 22.7617 207.969 22.4727C207.742 22.1836 207.453 21.957 207.102 21.793C206.75 21.6289 206.332 21.5469 205.848 21.5469C205.379 21.5469 204.969 21.6523 204.617 21.8633C204.266 22.0664 203.977 22.3516 203.75 22.7188C203.523 23.0859 203.352 23.5117 203.234 23.9961C203.125 24.4805 203.07 25.0039 203.07 25.5664Z" fill="black"/>
</svg>
